#!OML:ASF H:\Male1\Project 1\Capture day 1\Session 1\Male1.ASF
:FULLY-SPECIFIED
:DEGREES
356
root 21.3248 15.2342 0.298241 46.29 -86.7176 -55.2634
lowerback 19.7368 2.80134 3.67961
upperback 8.62044 3.7089 -0.573285
thorax -1.41893 1.70771 -3.43058
lowerneck -8.84708 0.551686 3.66552
upperneck 13.5975 -0.0569183 1.13619
head 5.56547 0.199935 -0.252936
rclavicle -1.43125e-014 2.62396e-014
rhumerus -26.802 16.7156 -88.2766
rradius 45.8757
rwrist -22.8784
rhand -12.1706 -3.24192
rfingers 7.12502
rthumb 13.8926 -32.7579
lclavicle -1.43125e-014 2.62396e-014
lhumerus -39.2716 -0.746138 81.1348
lradius 58.8971
lwrist 10.7961
lhand -31.3158 1.62023
lfingers 7.12502
lthumb -4.58805 31.5505
rfemur 22.4475 6.32269 35.6613
rtibia -1.59028e-014
rfoot -20.0012 -34.2358
rtoes -12.1468
lfemur -61.0233 1.85381 -20.3549
ltibia 91.3563
lfoot -19.5191 -1.60529
ltoes -26.5812
357
root 21.4293 15.2723 0.313376 45.2355 -87.1296 -53.9848
lowerback 19.6188 2.75662 3.57182
upperback 8.56931 3.63008 -0.688336
thorax -1.42057 1.6698 -3.47214
lowerneck -8.86788 0.514419 3.58471
upperneck 13.4681 -0.124943 1.3568
head 5.52819 0.176591 -0.175539
rclavicle -5.02925e-014 1.15295e-014
rhumerus -27.2797 16.3768 -88.4909
rradius 45.4506
rwrist -22.5056
rhand -11.796 -3.30746
rfingers 7.12502
rthumb 14.2536 -32.7983
lclavicle -5.02925e-014 1.15295e-014
lhumerus -39.4059 -0.877576 81.123
lradius 58.7704
lwrist 11.0384
lhand -31.2004 1.6733
lfingers 7.12502
lthumb -4.4766 31.606
rfemur 21.9053 6.68923 35.1375
rtibia 9.54166e-015
rfoot -20.3651 -33.9474
rtoes -10.503
lfemur -60.9457 1.92427 -20.6524
ltibia 91.8403
lfoot -19.9969 -0.894768
ltoes -27.0676
358
root 21.5287 15.3084 0.331922 43.8431 -87.5492 -52.3302
lowerback 19.4157 2.71255 3.4608
upperback 8.51523 3.55189 -0.788936
thorax -1.38318 1.63358 -3.4923
lowerneck -8.89495 0.498132 3.52919
upperneck 13.3689 -0.154064 1.47654
head 5.50172 0.166899 -0.131046
rclavicle 4.57205e-015 1.2921e-014
rhumerus -27.7708 16.1413 -88.6598
rradius 45.0624
rwrist -22.2272
rhand -11.6108 -3.25904
rfingers 7.12502
rthumb 14.432 -32.7372
lclavicle 4.57205e-015 1.2921e-014
lhumerus -39.493 -0.996382 81.1246
lradius 58.6035
lwrist 11.066
lhand -30.8842 1.50689
lfingers 7.12502
lthumb -4.17128 31.4458
rfemur 21.3196 7.07659 34.5836
rtibia 1.59028e-014
rfoot -20.4369 -33.7699
rtoes -9.61999
lfemur -60.7208 1.98511 -20.9291
ltibia 92.4156
lfoot -20.2386 -0.226592
ltoes -27.008
359
root 21.6234 15.3397 0.351926 42.5573 -87.9439 -50.7675
lowerback 19.149 2.67732 3.35887
upperback 8.45943 3.48827 -0.856828
thorax -1.31539 1.60546 -3.48254
lowerneck -8.91421 0.487713 3.48369
upperneck 13.3109 -0.16762 1.5278
head 5.4868 0.161022 -0.108524
rclavicle 2.94201e-014 -3.95581e-014
rhumerus -28.2642 15.955 -88.7793
rradius 44.6951
rwrist -22.0527
rhand -11.5557 -3.19975
rfingers 7.12502
rthumb 14.4851 -32.6741
lclavicle 2.94201e-014 -3.95581e-014
lhumerus -39.5044 -1.08738 81.1437
lradius 58.3307
lwrist 10.9075
lhand -30.3656 1.09823
lfingers 7.12502
lthumb -3.67049 31.0464
rfemur 20.7155 7.46699 34.053
rtibia -3.49861e-014
rfoot -20.3414 -33.6526
rtoes -9.20305
lfemur -60.3101 2.03928 -21.1216
ltibia 93.012
lfoot -20.2513 0.221015
ltoes -26.6015
360
root 21.7131 15.365 0.371902 41.7798 -88.2955 -49.7178
lowerback 18.8359 2.65548 3.27144
upperback 8.40205 3.4465 -0.886089
thorax -1.22486 1.58872 -3.44196
lowerneck -8.92385 0.475971 3.45658
upperneck 13.3159 -0.179332 1.52168
head 5.48977 0.153643 -0.106857
rclavicle 3.22031e-014 -1.41137e-014
rhumerus -28.7456 15.7341 -88.8374
rradius 44.3349
rwrist -21.9065
rhand -11.5567 -3.14869
rfingers 7.12502
rthumb 14.4842 -32.6231
lclavicle 3.22031e-014 -1.41137e-014
lhumerus -39.4348 -1.16518 81.1856
lradius 57.9126
lwrist 10.6185
lhand -29.7251 0.519729
lfingers 7.12502
lthumb -3.05201 30.4776
rfemur 20.1273 7.84284 33.5776
rtibia -2.70347e-014
rfoot -20.2426 -33.5212
rtoes -8.83011
lfemur -59.6641 2.05689 -21.1956
ltibia 93.5412
lfoot -20.1107 0.367338
ltoes -26.1382
